<svg version="1.1" xmlns="http://www.w3.org/2000/svg" xmlns:xlink="http://www.w3.org/1999/xlink" width="252.86249" height="86.07726" viewBox="0,0,252.86249,86.07726"><g transform="translate(-1155.43329,-495.20335)"><g data-paper-data="{&quot;isPaintingLayer&quot;:true}" fill-rule="nonzero" stroke-linecap="butt" stroke-linejoin="miter" stroke-miterlimit="10" stroke-dasharray="" stroke-dashoffset="0" style="mix-blend-mode: normal"><path d="M1408.29578,538.24116c0,23.73228 -24.71519,43.03945 -55.0903,43.03945h-142.68399c-30.37511,0 -55.08819,-19.30553 -55.08819,-43.03945c0,-23.73064 24.71098,-43.03781 55.08819,-43.03781h142.68399c30.37511,0 55.0903,19.30717 55.0903,43.03781z" fill="#f76ca5" stroke="none" stroke-width="1"/><path d="M1398.80711,538.24115c0,19.84317 -20.41443,35.92922 -45.59954,35.92922h-142.68399c-25.1851,0 -45.60164,-16.08605 -45.60164,-35.92922v0c0,-19.84151 20.41653,-35.92756 45.60164,-35.92756h142.68399c25.1851,0 45.59954,16.08605 45.59954,35.92756z" fill="#f590b0" stroke="none" stroke-width="1"/><text transform="translate(1190.58049,553.57584) scale(1.13132,1.13132)" font-size="40" xml:space="preserve" fill="#ffffff" fill-rule="nonzero" stroke="#ffffff" stroke-width="2" stroke-linecap="butt" stroke-linejoin="miter" stroke-miterlimit="10" stroke-dasharray="" stroke-dashoffset="0" font-family="Handwriting" font-weight="normal" text-anchor="start" style="mix-blend-mode: normal"><tspan x="0" dy="0">FEMALE</tspan></text></g></g></svg>