<svg version="1.1" xmlns="http://www.w3.org/2000/svg" xmlns:xlink="http://www.w3.org/1999/xlink" width="327.38848" height="69.5" viewBox="0,0,327.38848,69.5"><g transform="translate(-1116.30576,-505.25)"><g data-paper-data="{&quot;isPaintingLayer&quot;:true}" fill-rule="nonzero" stroke-linecap="butt" stroke-linejoin="miter" stroke-miterlimit="10" stroke-dasharray="" stroke-dashoffset="0" style="mix-blend-mode: normal"><path d="M1130.54169,562.18849v-46.0585h302.03748v46.0585z" fill="#ffffff" stroke="none" stroke-width="0"/><path d="M1123.86448,569.32322c0,0 -5.30872,-2.09396 -5.30872,-9.44052c0,-12.02056 0,-29.59852 0,-38.73865c0,-1.40108 0,-2.60389 0,-3.55802c0,-4.70683 3.64975,-7.12545 3.64975,-7.12545c0,0 2.67855,-2.96058 10.39695,-2.96058c1.48121,0 3.35849,0 5.59695,0c43.48838,0 223.29755,0 283.50219,0c12.41388,0 16.42467,3.52975 16.42467,3.52975c0,0 3.31795,2.91625 3.31795,8.26077c0,7.36097 0,27.54307 0,40.82749c0,7.2057 -3.81564,9.44053 -3.81564,9.44053c0,0 -3.65037,2.94146 -16.25877,2.94146c-62.01609,0 -248.44152,0 -282.77258,0c-10.62716,0 -14.73275,-3.17678 -14.73275,-3.17678z" fill="none" stroke="#000000" stroke-width="4.5"/></g></g></svg>