<svg version="1.1" xmlns="http://www.w3.org/2000/svg" xmlns:xlink="http://www.w3.org/1999/xlink" width="229.95543" height="86.07726" viewBox="0,0,229.95543,86.07726"><g transform="translate(-1165.0223,-495.20335)"><g data-paper-data="{&quot;isPaintingLayer&quot;:true}" fill-rule="nonzero" stroke-linecap="butt" stroke-linejoin="miter" stroke-miterlimit="10" stroke-dasharray="" stroke-dashoffset="0" style="mix-blend-mode: normal"><path d="M1394.97773,538.24116c0,23.73228 -22.47622,43.03945 -50.09962,43.03945h-129.75811c-27.6234,0 -50.0977,-19.30553 -50.0977,-43.03945c0,-23.73064 22.47239,-43.03781 50.0977,-43.03781h129.75811c27.6234,0 50.09962,19.30717 50.09962,43.03781z" fill="#0098de" stroke="none" stroke-width="1"/><path d="M1386.34865,538.24115c0,19.84317 -18.56507,35.92922 -41.46863,35.92922h-129.75811c-22.90356,0 -41.47054,-16.08605 -41.47054,-35.92922v0c0,-19.84151 18.56698,-35.92756 41.47054,-35.92756h129.75811c22.90356,0 41.46863,16.08605 41.46863,35.92756z" fill="#6fc9f2" stroke="none" stroke-width="1"/><text transform="translate(1218.45612,553.05263) scale(1.13132,1.13132)" font-size="40" xml:space="preserve" fill="#ffffff" fill-rule="nonzero" stroke="#ffffff" stroke-width="2" stroke-linecap="butt" stroke-linejoin="miter" stroke-miterlimit="10" stroke-dasharray="" stroke-dashoffset="0" font-family="Handwriting" font-weight="normal" text-anchor="start" style="mix-blend-mode: normal"><tspan x="0" dy="0">MALE</tspan></text></g></g></svg>