<svg version="1.1" xmlns="http://www.w3.org/2000/svg" xmlns:xlink="http://www.w3.org/1999/xlink" width="293.06005" height="69.5" viewBox="0,0,293.06005,69.5"><g transform="translate(-1133.76483,-505.25)"><g data-paper-data="{&quot;isPaintingLayer&quot;:true}" fill-rule="nonzero" stroke-linecap="butt" stroke-linejoin="miter" stroke-miterlimit="10" stroke-dasharray="" stroke-dashoffset="0" style="mix-blend-mode: normal"><path d="M1141.99829,567.68179v-53.70384h275.62706v53.70384z" fill="#ffffff" stroke="none" stroke-width="0"/><path d="M1140.75915,569.32322c0,0 -4.74432,-2.09396 -4.74432,-9.44052c0,-12.02056 0,-29.59852 0,-38.73865c0,-1.40108 0,-2.60389 0,-3.55802c0,-4.70683 3.26172,-7.12545 3.26172,-7.12545c0,0 2.39378,-2.96058 9.29158,-2.96058c1.32373,0 3.00143,0 5.0019,0c38.86484,0 199.55729,0 253.36118,0c11.09408,0 14.67846,3.52975 14.67846,3.52975c0,0 2.9652,2.91625 2.9652,8.26077c0,7.36097 0,27.54307 0,40.82749c0,7.2057 -3.40997,9.44053 -3.40997,9.44053c0,0 -3.26228,2.94146 -14.5302,2.94146c-55.42275,0 -222.02804,0 -252.70913,0c-9.49732,0 -13.16642,-3.17678 -13.16642,-3.17678z" fill="none" stroke="#000000" stroke-width="4.5"/></g></g></svg>