<svg version="1.1" xmlns="http://www.w3.org/2000/svg" xmlns:xlink="http://www.w3.org/1999/xlink" width="233.5" height="69.5" viewBox="0,0,233.5,69.5"><g transform="translate(-1163.25,-505.25)"><g data-paper-data="{&quot;isPaintingLayer&quot;:true}" fill-rule="nonzero" stroke-linecap="butt" stroke-linejoin="miter" stroke-miterlimit="10" stroke-dasharray="" stroke-dashoffset="0" style="mix-blend-mode: normal"><path d="M1172.15338,565.77869v-52.74954h216.02194v52.74954z" fill="#ffffff" stroke="none" stroke-width="0"/><path d="M1169.26507,569.32322c0,0 -3.76507,-2.09396 -3.76507,-9.44052c0,-12.02056 0,-29.59852 0,-38.73865c0,-1.40108 0,-2.60389 0,-3.55802c0,-4.70683 2.58849,-7.12545 2.58849,-7.12545c0,0 1.89969,-2.96058 7.37376,-2.96058c1.05051,0 2.38192,0 3.96949,0c30.84297,0 158.3678,0 201.06633,0c8.80421,0 11.64876,3.52975 11.64876,3.52975c0,0 2.35317,2.91625 2.35317,8.26077c0,7.36097 0,27.54307 0,40.82749c0,7.2057 -2.70614,9.44053 -2.70614,9.44053c0,0 -2.58893,2.94146 -11.5311,2.94146c-43.98325,0 -176.20049,0 -200.54887,0c-7.53703,0 -10.44881,-3.17678 -10.44881,-3.17678z" fill="none" stroke="#000000" stroke-width="4.5"/></g></g></svg>